<?xml version="1.0" encoding="UTF-8"?>
<svg version="1.1" viewBox="0 0 816 1056" xml:space="preserve" xmlns="http://www.w3.org/2000/svg" xmlns:cc="http://creativecommons.org/ns#" xmlns:dc="http://purl.org/dc/elements/1.1/" xmlns:rdf="http://www.w3.org/1999/02/22-rdf-syntax-ns#"><metadata><rdf:RDF><cc:Work rdf:about=""><dc:format>image/svg+xml</dc:format><dc:type rdf:resource="http://purl.org/dc/dcmitype/StillImage"/></cc:Work></rdf:RDF></metadata><defs><clipPath id="h"><path d="m261.63 411.41 44.795 77.588 153.36-265.62-67.193-38.794z"/></clipPath><linearGradient id="d" x2="1" gradientTransform="matrix(112.42 -189.75 -189.75 -112.42 309 405.16)" gradientUnits="userSpaceOnUse"><stop stop-color="#ed1c24" offset="0"/><stop stop-color="#fff200" offset="1"/></linearGradient><clipPath id="g"><path d="m437.1 262.84 44.795-77.588h-306.72v77.588z"/></clipPath><linearGradient id="c" x2="1" gradientTransform="matrix(-220.54 -2.4885 -2.4885 220.54 408 224.94)" gradientUnits="userSpaceOnUse"><stop stop-color="#fff200" offset="0"/><stop stop-color="#00a650" offset="1"/></linearGradient><clipPath id="f"><path d="m219.7 184.58h-89.591l153.36 265.62 67.193-38.794z"/></clipPath><linearGradient id="b" x2="1" gradientTransform="matrix(108.11 192.24 192.24 -108.11 201.43 228.73)" gradientUnits="userSpaceOnUse"><stop stop-color="#00a650" offset="0"/><stop stop-color="#ed1c24" offset="1"/></linearGradient><clipPath id="e"><path d="m320.96 308.64-59.334 102.77 44.795 77.588 79.695-138.04"/></clipPath><linearGradient id="a" x2="1" gradientTransform="matrix(152 -256.55 -256.55 -152 292.1 435.26)" gradientUnits="userSpaceOnUse"><stop stop-color="#ed1c24" offset="0"/><stop stop-color="#fff200" offset="1"/></linearGradient></defs><g transform="matrix(1.3333 0 0 -1.3333 0 1056)"><g clip-path="url(#h)"><path d="m261.63 411.41 44.795 77.588 153.36-265.62-67.193-38.794z" fill="url(#d)"/></g><g clip-path="url(#g)"><path d="m437.1 262.84 44.795-77.588h-306.72v77.588z" fill="url(#c)"/></g><g clip-path="url(#f)"><path d="m219.7 184.58h-89.591l153.36 265.62 67.193-38.794z" fill="url(#b)"/></g><g clip-path="url(#e)"><path d="m320.96 308.64-59.334 102.77 44.795 77.588 79.695-138.04" fill="url(#a)"/></g></g></svg>
